<svg width="200" height="42" viewBox="0 0 200 42" fill="none" xmlns="http://www.w3.org/2000/svg">
<path d="M27.3484 6.23464C27.2153 6.13094 27.0603 6.05891 26.8953 6.02402C26.7302 5.98913 26.5593 5.99229 26.3957 6.03326L8.61894 10.4774C8.37858 10.5375 8.16519 10.6762 8.0127 10.8715C7.86021 11.0668 7.77736 11.3074 7.77732 11.5552V26.8431C6.85048 26.2239 5.74327 25.9321 4.6316 26.0142C3.51994 26.0962 2.46758 26.5474 1.64172 27.2961C0.815871 28.0448 0.263893 29.048 0.073487 30.1463C-0.116919 31.2446 0.065169 32.375 0.590821 33.358C1.11647 34.341 1.95554 35.1201 2.97471 35.5715C3.99388 36.023 5.13469 36.121 6.2159 35.8498C7.29711 35.5787 8.2567 34.954 8.94221 34.075C9.62771 33.196 9.99982 32.1131 9.99941 30.9985V19.0894L25.554 15.2008V22.399C24.6272 21.7797 23.52 21.4879 22.4083 21.57C21.2967 21.652 20.2443 22.1033 19.4184 22.8519C18.5926 23.6006 18.0406 24.6038 17.8502 25.7021C17.6598 26.8004 17.8419 27.9308 18.3675 28.9138C18.8932 29.8968 19.7323 30.6759 20.7514 31.1274C21.7706 31.5788 22.9114 31.6768 23.9926 31.4056C25.0738 31.1345 26.0334 30.5098 26.7189 29.6308C27.4044 28.7518 27.7765 27.669 27.7761 26.5543V7.11098C27.7762 6.942 27.7377 6.77523 27.6635 6.62337C27.5894 6.47151 27.4816 6.33857 27.3484 6.23464ZM4.99971 33.7761C4.45035 33.7761 3.91333 33.6132 3.45655 33.308C2.99978 33.0027 2.64376 32.5689 2.43353 32.0614C2.2233 31.5539 2.16829 30.9954 2.27547 30.4566C2.38264 29.9178 2.64719 29.4228 3.03564 29.0344C3.4241 28.6459 3.91902 28.3814 4.45783 28.2742C4.99663 28.167 5.55511 28.222 6.06266 28.4323C6.5702 28.6425 7.004 28.9985 7.30921 29.4553C7.61442 29.9121 7.77732 30.4491 7.77732 30.9985C7.77732 31.7351 7.48468 32.4416 6.96378 32.9625C6.44288 33.4834 5.73638 33.7761 4.99971 33.7761ZM9.99941 16.7979V12.4232L25.554 8.5345V12.9092L9.99941 16.7979ZM22.7764 29.3319C22.2271 29.3319 21.6901 29.169 21.2333 28.8638C20.7765 28.5586 20.4205 28.1248 20.2103 27.6172C20 27.1097 19.945 26.5512 20.0522 26.0124C20.1594 25.4736 20.4239 24.9787 20.8124 24.5902C21.2008 24.2017 21.6957 23.9372 22.2345 23.83C22.7734 23.7229 23.3318 23.7779 23.8394 23.9881C24.3469 24.1983 24.7807 24.5543 25.0859 25.0111C25.3911 25.4679 25.554 26.0049 25.554 26.5543C25.554 26.919 25.4822 27.2802 25.3426 27.6172C25.203 27.9542 24.9984 28.2604 24.7405 28.5183C24.4826 28.7763 24.1764 28.9809 23.8394 29.1204C23.5024 29.26 23.1412 29.3319 22.7764 29.3319Z" fill="#00B37E"/>
<path d="M49.1389 11.3104V29.5H45.391V11.3104H49.1389ZM56.3847 19.081V22.0043H48.1145V19.081H56.3847ZM57.2592 11.3104V14.2462H48.1145V11.3104H57.2592ZM62.4812 18.9311V29.5H58.8833V15.9828H62.2689L62.4812 18.9311ZM66.5539 15.8953L66.4914 19.2309C66.3165 19.2059 66.1042 19.1851 65.8543 19.1684C65.6128 19.1434 65.3921 19.1309 65.1922 19.1309C64.6841 19.1309 64.2427 19.1976 63.8679 19.3308C63.5015 19.4558 63.1933 19.6432 62.9435 19.893C62.7019 20.1429 62.5187 20.4469 62.3938 20.805C62.2772 21.1631 62.2106 21.5712 62.1939 22.0293L61.4693 21.8044C61.4693 20.9299 61.5568 20.1262 61.7317 19.3933C61.9066 18.6521 62.1606 18.0066 62.4937 17.4569C62.8352 16.9072 63.2516 16.4825 63.743 16.1826C64.2344 15.8828 64.7966 15.7329 65.4295 15.7329C65.6294 15.7329 65.8335 15.7496 66.0417 15.7829C66.2499 15.8079 66.4206 15.8453 66.5539 15.8953ZM74.2245 29.7499C73.1751 29.7499 72.234 29.5833 71.4011 29.2501C70.5683 28.9087 69.8603 28.4381 69.2773 27.8385C68.7027 27.2388 68.2613 26.5434 67.9531 25.7521C67.6449 24.9526 67.4909 24.1031 67.4909 23.2036V22.7039C67.4909 21.6795 67.6366 20.7425 67.9281 19.893C68.2196 19.0435 68.636 18.3064 69.1774 17.6818C69.7271 17.0571 70.3934 16.5782 71.1762 16.2451C71.9591 15.9036 72.842 15.7329 73.8247 15.7329C74.7825 15.7329 75.632 15.8911 76.3733 16.2076C77.1145 16.5241 77.735 16.9739 78.2347 17.5569C78.7427 18.1398 79.1259 18.8394 79.384 19.6556C79.6422 20.4635 79.7713 21.363 79.7713 22.3541V23.8532H69.0275V21.4546H76.2358V21.1798C76.2358 20.6801 76.1442 20.2345 75.961 19.843C75.7861 19.4433 75.5196 19.1268 75.1615 18.8936C74.8033 18.6604 74.3453 18.5438 73.7873 18.5438C73.3125 18.5438 72.9044 18.6479 72.563 18.8561C72.2215 19.0643 71.9425 19.3558 71.7259 19.7306C71.5177 20.1054 71.3595 20.5468 71.2512 21.0548C71.1513 21.5546 71.1013 22.1042 71.1013 22.7039V23.2036C71.1013 23.745 71.1762 24.2447 71.3262 24.7028C71.4844 25.1608 71.7051 25.5564 71.9883 25.8896C72.2798 26.2227 72.6296 26.4809 73.0377 26.6641C73.4541 26.8474 73.9247 26.939 74.4494 26.939C75.099 26.939 75.7028 26.814 76.2608 26.5642C76.8272 26.306 77.3144 25.9187 77.7225 25.4024L79.4715 27.3013C79.1883 27.7094 78.801 28.1008 78.3097 28.4756C77.8266 28.8504 77.2436 29.1585 76.5607 29.4001C75.8777 29.6333 75.099 29.7499 74.2245 29.7499ZM88.0416 29.7499C86.9922 29.7499 86.051 29.5833 85.2182 29.2501C84.3853 28.9087 83.6774 28.4381 83.0944 27.8385C82.5197 27.2388 82.0783 26.5434 81.7702 25.7521C81.462 24.9526 81.3079 24.1031 81.3079 23.2036V22.7039C81.3079 21.6795 81.4537 20.7425 81.7452 19.893C82.0367 19.0435 82.4531 18.3064 82.9945 17.6818C83.5442 17.0571 84.2104 16.5782 84.9933 16.2451C85.7762 15.9036 86.659 15.7329 87.6418 15.7329C88.5996 15.7329 89.4491 15.8911 90.1903 16.2076C90.9316 16.5241 91.5521 16.9739 92.0518 17.5569C92.5598 18.1398 92.9429 18.8394 93.2011 19.6556C93.4593 20.4635 93.5884 21.363 93.5884 22.3541V23.8532H82.8446V21.4546H90.0529V21.1798C90.0529 20.6801 89.9613 20.2345 89.7781 19.843C89.6032 19.4433 89.3367 19.1268 88.9785 18.8936C88.6204 18.6604 88.1623 18.5438 87.6043 18.5438C87.1296 18.5438 86.7215 18.6479 86.38 18.8561C86.0386 19.0643 85.7595 19.3558 85.543 19.7306C85.3348 20.1054 85.1765 20.5468 85.0683 21.0548C84.9683 21.5546 84.9184 22.1042 84.9184 22.7039V23.2036C84.9184 23.745 84.9933 24.2447 85.1432 24.7028C85.3015 25.1608 85.5222 25.5564 85.8054 25.8896C86.0969 26.2227 86.4467 26.4809 86.8548 26.6641C87.2712 26.8474 87.7417 26.939 88.2664 26.939C88.9161 26.939 89.5199 26.814 90.0779 26.5642C90.6442 26.306 91.1315 25.9187 91.5396 25.4024L93.2886 27.3013C93.0054 27.7094 92.6181 28.1008 92.1267 28.4756C91.6437 28.8504 91.0607 29.1585 90.3777 29.4001C89.6948 29.6333 88.9161 29.7499 88.0416 29.7499ZM99.435 10.311V29.5H95.8246V10.311H99.435ZM109.704 26.4517V20.4302C109.704 19.9971 109.633 19.6265 109.492 19.3183C109.35 19.0019 109.129 18.7562 108.83 18.5813C108.538 18.4064 108.159 18.3189 107.693 18.3189C107.293 18.3189 106.947 18.3897 106.656 18.5313C106.364 18.6645 106.14 18.8603 105.981 19.1185C105.823 19.3683 105.744 19.664 105.744 20.0054H102.146C102.146 19.4308 102.279 18.8853 102.546 18.3689C102.812 17.8525 103.2 17.3986 103.708 17.0072C104.216 16.6074 104.819 16.2951 105.519 16.0702C106.227 15.8453 107.018 15.7329 107.893 15.7329C108.942 15.7329 109.875 15.9078 110.691 16.2576C111.507 16.6074 112.149 17.1321 112.615 17.8317C113.09 18.5313 113.327 19.4058 113.327 20.4552V26.2394C113.327 26.9806 113.373 27.5886 113.464 28.0633C113.556 28.5297 113.689 28.9378 113.864 29.2876V29.5H110.229C110.054 29.1335 109.921 28.6755 109.829 28.1258C109.746 27.5678 109.704 27.0098 109.704 26.4517ZM110.179 21.2672L110.204 23.3036H108.193C107.718 23.3036 107.306 23.3577 106.956 23.466C106.606 23.5742 106.319 23.7283 106.094 23.9282C105.869 24.1198 105.702 24.3446 105.594 24.6028C105.494 24.861 105.444 25.1442 105.444 25.4523C105.444 25.7605 105.515 26.0395 105.656 26.2893C105.798 26.5309 106.002 26.7224 106.269 26.864C106.535 26.9973 106.847 27.0639 107.206 27.0639C107.747 27.0639 108.218 26.9556 108.617 26.7391C109.017 26.5225 109.325 26.256 109.542 25.9395C109.767 25.6231 109.883 25.3232 109.892 25.0401L110.841 26.5642C110.708 26.9057 110.525 27.2596 110.291 27.6261C110.066 27.9925 109.779 28.3382 109.429 28.663C109.08 28.9795 108.659 29.2418 108.168 29.45C107.676 29.6499 107.093 29.7499 106.419 29.7499C105.561 29.7499 104.782 29.5791 104.082 29.2377C103.391 28.8879 102.841 28.409 102.433 27.801C102.034 27.1847 101.834 26.4851 101.834 25.7022C101.834 24.9943 101.967 24.3654 102.233 23.8158C102.5 23.2661 102.891 22.8038 103.408 22.4291C103.932 22.0459 104.586 21.7586 105.369 21.5671C106.152 21.3672 107.06 21.2672 108.093 21.2672H110.179ZM124.408 11.3104H127.581L132.254 24.6653L136.926 11.3104H140.099L133.528 29.5H130.979L124.408 11.3104ZM122.697 11.3104H125.857L126.432 24.328V29.5H122.697V11.3104ZM138.65 11.3104H141.823V29.5H138.075V24.328L138.65 11.3104ZM144.309 22.8788V22.6164C144.309 21.6253 144.451 20.7134 144.734 19.8805C145.017 19.0393 145.429 18.3106 145.971 17.6943C146.512 17.078 147.178 16.5991 147.97 16.2576C148.761 15.9078 149.669 15.7329 150.693 15.7329C151.718 15.7329 152.63 15.9078 153.429 16.2576C154.229 16.5991 154.899 17.078 155.44 17.6943C155.99 18.3106 156.407 19.0393 156.69 19.8805C156.973 20.7134 157.114 21.6253 157.114 22.6164V22.8788C157.114 23.8616 156.973 24.7735 156.69 25.6147C156.407 26.4476 155.99 27.1763 155.44 27.801C154.899 28.4173 154.233 28.8962 153.442 29.2377C152.65 29.5791 151.743 29.7499 150.718 29.7499C149.694 29.7499 148.782 29.5791 147.982 29.2377C147.191 28.8962 146.521 28.4173 145.971 27.801C145.429 27.1763 145.017 26.4476 144.734 25.6147C144.451 24.7735 144.309 23.8616 144.309 22.8788ZM147.907 22.6164V22.8788C147.907 23.4451 147.957 23.974 148.057 24.4654C148.157 24.9568 148.315 25.3899 148.532 25.7646C148.757 26.1311 149.048 26.4184 149.406 26.6266C149.765 26.8349 150.202 26.939 150.718 26.939C151.218 26.939 151.647 26.8349 152.005 26.6266C152.363 26.4184 152.65 26.1311 152.867 25.7646C153.083 25.3899 153.242 24.9568 153.342 24.4654C153.45 23.974 153.504 23.4451 153.504 22.8788V22.6164C153.504 22.0668 153.45 21.5504 153.342 21.0673C153.242 20.576 153.079 20.1429 152.854 19.7681C152.638 19.385 152.351 19.0851 151.992 18.8686C151.634 18.6521 151.201 18.5438 150.693 18.5438C150.185 18.5438 149.752 18.6521 149.394 18.8686C149.044 19.0851 148.757 19.385 148.532 19.7681C148.315 20.1429 148.157 20.576 148.057 21.0673C147.957 21.5504 147.907 22.0668 147.907 22.6164ZM162.849 18.8686V29.5H159.251V15.9828H162.624L162.849 18.8686ZM162.324 22.2666H161.35C161.35 21.2672 161.479 20.3677 161.737 19.5682C161.995 18.7603 162.357 18.0732 162.824 17.5069C163.29 16.9322 163.844 16.495 164.485 16.1951C165.135 15.887 165.859 15.7329 166.659 15.7329C167.292 15.7329 167.871 15.8245 168.395 16.0077C168.92 16.191 169.37 16.4825 169.745 16.8822C170.128 17.282 170.419 17.8109 170.619 18.4688C170.827 19.1268 170.932 19.9305 170.932 20.8799V29.5H167.309V20.8675C167.309 20.2678 167.225 19.8014 167.059 19.4683C166.892 19.1351 166.646 18.9019 166.322 18.7687C166.005 18.6271 165.614 18.5563 165.147 18.5563C164.664 18.5563 164.244 18.6521 163.886 18.8436C163.536 19.0352 163.244 19.3017 163.011 19.6432C162.786 19.9763 162.615 20.3677 162.499 20.8175C162.382 21.2672 162.324 21.7503 162.324 22.2666ZM179.889 29.7499C178.839 29.7499 177.898 29.5833 177.066 29.2501C176.233 28.9087 175.525 28.4381 174.942 27.8385C174.367 27.2388 173.926 26.5434 173.617 25.7521C173.309 24.9526 173.155 24.1031 173.155 23.2036V22.7039C173.155 21.6795 173.301 20.7425 173.593 19.893C173.884 19.0435 174.3 18.3064 174.842 17.6818C175.391 17.0571 176.058 16.5782 176.841 16.2451C177.624 15.9036 178.506 15.7329 179.489 15.7329C180.447 15.7329 181.296 15.8911 182.038 16.2076C182.779 16.5241 183.399 16.9739 183.899 17.5569C184.407 18.1398 184.79 18.8394 185.048 19.6556C185.307 20.4635 185.436 21.363 185.436 22.3541V23.8532H174.692V21.4546H181.9V21.1798C181.9 20.6801 181.809 20.2345 181.625 19.843C181.45 19.4433 181.184 19.1268 180.826 18.8936C180.468 18.6604 180.01 18.5438 179.452 18.5438C178.977 18.5438 178.569 18.6479 178.227 18.8561C177.886 19.0643 177.607 19.3558 177.39 19.7306C177.182 20.1054 177.024 20.5468 176.916 21.0548C176.816 21.5546 176.766 22.1042 176.766 22.7039V23.2036C176.766 23.745 176.841 24.2447 176.991 24.7028C177.149 25.1608 177.37 25.5564 177.653 25.8896C177.944 26.2227 178.294 26.4809 178.702 26.6641C179.119 26.8474 179.589 26.939 180.114 26.939C180.763 26.939 181.367 26.814 181.925 26.5642C182.492 26.306 182.979 25.9187 183.387 25.4024L185.136 27.3013C184.853 27.7094 184.465 28.1008 183.974 28.4756C183.491 28.8504 182.908 29.1585 182.225 29.4001C181.542 29.6333 180.763 29.7499 179.889 29.7499ZM191.32 27.9759L194.905 15.9828H198.766L193.331 31.5363C193.215 31.8778 193.056 32.2443 192.856 32.6357C192.665 33.0271 192.403 33.3978 192.069 33.7476C191.745 34.1057 191.332 34.3972 190.833 34.6221C190.341 34.8469 189.737 34.9594 189.021 34.9594C188.68 34.9594 188.401 34.9385 188.184 34.8969C187.968 34.8553 187.709 34.797 187.41 34.722V32.086C187.501 32.086 187.597 32.086 187.697 32.086C187.797 32.0943 187.893 32.0985 187.984 32.0985C188.459 32.0985 188.846 32.0444 189.146 31.9361C189.446 31.8278 189.687 31.6613 189.871 31.4364C190.054 31.2198 190.2 30.9367 190.308 30.5869L191.32 27.9759ZM189.821 15.9828L192.757 25.7771L193.269 29.5874L190.82 29.8498L185.96 15.9828H189.821Z" fill="#E1E1E6"/>
</svg>
